<svg width="81" height="81" viewBox="0 0 81 81" fill="none" xmlns="http://www.w3.org/2000/svg">
<g clip-path="url(#clip0_1245_1642)">
<path d="M33.5289 63.6009H47.4079C58.9739 63.6009 63.5999 58.9749 63.5999 47.4089V33.5289C63.6009 21.9629 58.9739 17.3369 47.4079 17.3369H33.5289C21.9629 17.3369 17.3369 21.9629 17.3369 33.5289V47.4079C17.3369 58.9739 21.9629 63.6009 33.5289 63.6009Z" stroke="#C7D6D8" stroke-width="2" stroke-linecap="round" stroke-linejoin="round"/>
<path d="M38.1563 31.2149C38.1563 32.1298 37.885 33.0241 37.3767 33.7848C36.8685 34.5456 36.1461 35.1385 35.3008 35.4886C34.4556 35.8388 33.5255 35.9305 32.6282 35.7521C31.7309 35.5736 30.9066 35.1332 30.2596 34.4863C29.6126 33.8394 29.1719 33.0153 28.9933 32.118C28.8147 31.2207 28.9062 30.2906 29.2561 29.4453C29.6061 28.6 30.1989 27.8774 30.9595 27.369C31.7201 26.8605 32.6144 26.5891 33.5293 26.5889C34.1369 26.5887 34.7385 26.7083 35.2999 26.9407C35.8613 27.1731 36.3714 27.5139 36.801 27.9434C37.2307 28.373 37.5715 28.883 37.8041 29.4443C38.0366 30.0057 38.1563 30.6073 38.1563 31.2149Z" stroke="#C7D6D8" stroke-width="2" stroke-linecap="round" stroke-linejoin="round"/>
<path d="M18.8867 56.5452L30.2867 48.8892C31.209 48.2929 32.296 48.0032 33.3927 48.0614C34.4894 48.1196 35.5397 48.5227 36.3937 49.2132L37.1567 49.8842C38.0774 50.636 39.2296 51.0466 40.4182 51.0466C41.6069 51.0466 42.759 50.636 43.6797 49.8842L53.3067 41.6252C54.2274 40.8735 55.3796 40.4629 56.5682 40.4629C57.7569 40.4629 58.909 40.8735 59.8297 41.6252L63.6007 44.8632" stroke="#C7D6D8" stroke-width="2" stroke-linecap="round" stroke-linejoin="round"/>
<path d="M55.9684 63.6029C64.054 65.2023 68.5124 62.0519 70.9553 52.9406L74.1247 41.1197C76.7654 31.2704 73.8854 26.2746 64.0322 23.6328" stroke="#C7D6D8" stroke-width="2.00024" stroke-linecap="round" stroke-linejoin="round"/>
<path d="M71.536 50.773L69.0645 47.1542C68.4519 46.3037 67.5645 45.691 66.5521 45.4196C65.5398 45.1481 64.4648 45.2347 63.509 45.6646" stroke="#C7D6D8" stroke-width="2.00024" stroke-linecap="round" stroke-linejoin="round"/>
<path d="M25.1091 63.5999C17.0235 65.1993 12.5651 62.0489 10.1222 52.9376L6.95312 41.1176C4.31306 31.267 7.19305 26.2713 17.0463 23.6295" stroke="#C7D6D8" stroke-width="2.00024" stroke-linecap="round" stroke-linejoin="round"/>
<path d="M14.551 60.8626L18.0274 56.8805" stroke="#C7D6D8" stroke-width="2.00024" stroke-linecap="round" stroke-linejoin="round"/>
</g>
<defs>
<clipPath id="clip0_1245_1642">
<rect width="80.937" height="80.937" fill="white"/>
</clipPath>
</defs>
</svg>
